{
    "accessors" : [
        {
            "bufferView" : 0,
            "componentType" : 5123,
            "count" : 204,
            "max" : [
                131
            ],
            "min" : [
                0
            ],
            "type" : "SCALAR"
        },
        {
            "bufferView" : 1,
            "componentType" : 5126,
            "count" : 132,
            "max" : [
                0.8660255670547485,
                5.5343828201293945,
                1.0
            ],
            "min" : [
                -0.866025447845459,
                -1.0,
                -1.0
            ],
            "type" : "VEC3"
        },
        {
            "bufferView" : 2,
            "componentType" : 5126,
            "count" : 132,
            "max" : [
                1.0,
                1.0,
                0.8660255074501038
            ],
            "min" : [
                -1.0,
                -1.0,
                -0.866025447845459
            ],
            "type" : "VEC3"
        },
        {
            "bufferView" : 3,
            "componentType" : 5126,
            "count" : 132,
            "max" : [
                1.0,
                1.0
            ],
            "min" : [
                0.0,
                0.0
            ],
            "type" : "VEC2"
        },
        {
            "bufferView" : 4,
            "componentType" : 5123,
            "count" : 132,
            "max" : [
                2,
                2,
                2,
                0
            ],
            "min" : [
                0,
                0,
                0,
                0
            ],
            "type" : "VEC4"
        },
        {
            "bufferView" : 5,
            "componentType" : 5126,
            "count" : 132,
            "max" : [
                0.9777500629425049,
                0.9656995534896851,
                0.10776962339878082,
                0.0
            ],
            "min" : [
                0.013256150297820568,
                0.0,
                0.0,
                0.0
            ],
            "type" : "VEC4"
        },
        {
            "bufferView" : 6,
            "componentType" : 5126,
            "count" : 3,
            "max" : [
                1.0,
                0.0,
                0.0,
                0.0,
                0.0,
                1.0,
                0.0,
                0.0,
                0.0,
                0.0,
                1.0,
                0.0,
                0.0,
                0.0,
                0.0,
                1.0
            ],
            "min" : [
                1.0,
                0.0,
                0.0,
                0.0,
                0.0,
                1.0,
                0.0,
                0.0,
                0.0,
                0.0,
                1.0,
                0.0,
                0.0,
                -2.2535250186920166,
                0.0,
                1.0
            ],
            "type" : "MAT4"
        },
        {
            "bufferView" : 7,
            "componentType" : 5126,
            "count" : 100,
            "max" : [
                4.125
            ],
            "min" : [
                0.0
            ],
            "type" : "SCALAR"
        },
        {
            "bufferView" : 8,
            "componentType" : 5126,
            "count" : 100,
            "max" : [
                0.0,
                0.0,
                0.0
            ],
            "min" : [
                0.0,
                0.0,
                0.0
            ],
            "type" : "VEC3"
        },
        {
            "bufferView" : 9,
            "componentType" : 5126,
            "count" : 100,
            "max" : [
                4.125
            ],
            "min" : [
                0.0
            ],
            "type" : "SCALAR"
        },
        {
            "bufferView" : 10,
            "componentType" : 5126,
            "count" : 100,
            "max" : [
                0.2538849413394928,
                0.0,
                0.0,
                1.0
            ],
            "min" : [
                0.0,
                0.0,
                0.0,
                0.9672344326972961
            ],
            "type" : "VEC4"
        },
        {
            "bufferView" : 11,
            "componentType" : 5126,
            "count" : 100,
            "max" : [
                4.125
            ],
            "min" : [
                0.0
            ],
            "type" : "SCALAR"
        },
        {
            "bufferView" : 12,
            "componentType" : 5126,
            "count" : 100,
            "max" : [
                0.0,
                1.0,
                0.0
            ],
            "min" : [
                0.0,
                1.0,
                0.0
            ],
            "type" : "VEC3"
        },
        {
            "bufferView" : 13,
            "componentType" : 5126,
            "count" : 100,
            "max" : [
                4.125
            ],
            "min" : [
                0.0
            ],
            "type" : "SCALAR"
        },
        {
            "bufferView" : 14,
            "componentType" : 5126,
            "count" : 100,
            "max" : [
                0.15714383125305176,
                0.0,
                0.0,
                1.0
            ],
            "min" : [
                -0.09433672577142715,
                0.0,
                0.0,
                0.9875757098197937
            ],
            "type" : "VEC4"
        },
        {
            "bufferView" : 15,
            "componentType" : 5126,
            "count" : 100,
            "max" : [
                4.125
            ],
            "min" : [
                0.0
            ],
            "type" : "SCALAR"
        },
        {
            "bufferView" : 16,
            "componentType" : 5126,
            "count" : 100,
            "max" : [
                0.0,
                1.2535250186920166,
                0.0
            ],
            "min" : [
                0.0,
                1.2535250186920166,
                0.0
            ],
            "type" : "VEC3"
        },
        {
            "bufferView" : 17,
            "componentType" : 5126,
            "count" : 100,
            "max" : [
                4.125
            ],
            "min" : [
                0.0
            ],
            "type" : "SCALAR"
        },
        {
            "bufferView" : 18,
            "componentType" : 5126,
            "count" : 100,
            "max" : [
                0.1555967926979065,
                0.0,
                0.0,
                1.0
            ],
            "min" : [
                -0.06702079623937607,
                0.0,
                0.0,
                0.9878206849098206
            ],
            "type" : "VEC4"
        }
    ],
    "animations" : [
        {
            "channels" : [
                {
                    "sampler" : 0,
                    "target" : {
                        "node" : 2,
                        "path" : "translation"
                    }
                },
                {
                    "sampler" : 1,
                    "target" : {
                        "node" : 2,
                        "path" : "rotation"
                    }
                },
                {
                    "sampler" : 2,
                    "target" : {
                        "node" : 3,
                        "path" : "translation"
                    }
                },
                {
                    "sampler" : 3,
                    "target" : {
                        "node" : 3,
                        "path" : "rotation"
                    }
                },
                {
                    "sampler" : 4,
                    "target" : {
                        "node" : 4,
                        "path" : "translation"
                    }
                },
                {
                    "sampler" : 5,
                    "target" : {
                        "node" : 4,
                        "path" : "rotation"
                    }
                }
            ],
            "name" : "randumbanim",
            "samplers" : [
                {
                    "input" : 7,
                    "interpolation" : "LINEAR",
                    "output" : 8
                },
                {
                    "input" : 9,
                    "interpolation" : "LINEAR",
                    "output" : 10
                },
                {
                    "input" : 11,
                    "interpolation" : "LINEAR",
                    "output" : 12
                },
                {
                    "input" : 13,
                    "interpolation" : "LINEAR",
                    "output" : 14
                },
                {
                    "input" : 15,
                    "interpolation" : "LINEAR",
                    "output" : 16
                },
                {
                    "input" : 17,
                    "interpolation" : "LINEAR",
                    "output" : 18
                }
            ]
        }
    ],
    "asset" : {
        "generator" : "Khronos Blender glTF 2.0 exporter",
        "version" : "2.0"
    },
    "bufferViews" : [
        {
            "buffer" : 0,
            "byteLength" : 408,
            "byteOffset" : 0,
            "target" : 34963
        },
        {
            "buffer" : 0,
            "byteLength" : 1584,
            "byteOffset" : 408,
            "target" : 34962
        },
        {
            "buffer" : 0,
            "byteLength" : 1584,
            "byteOffset" : 1992,
            "target" : 34962
        },
        {
            "buffer" : 0,
            "byteLength" : 1056,
            "byteOffset" : 3576,
            "target" : 34962
        },
        {
            "buffer" : 0,
            "byteLength" : 1056,
            "byteOffset" : 4632,
            "target" : 34962
        },
        {
            "buffer" : 0,
            "byteLength" : 2112,
            "byteOffset" : 5688,
            "target" : 34962
        },
        {
            "buffer" : 0,
            "byteLength" : 192,
            "byteOffset" : 7800
        },
        {
            "buffer" : 0,
            "byteLength" : 400,
            "byteOffset" : 7992
        },
        {
            "buffer" : 0,
            "byteLength" : 1200,
            "byteOffset" : 8392
        },
        {
            "buffer" : 0,
            "byteLength" : 400,
            "byteOffset" : 9592
        },
        {
            "buffer" : 0,
            "byteLength" : 1600,
            "byteOffset" : 9992
        },
        {
            "buffer" : 0,
            "byteLength" : 400,
            "byteOffset" : 11592
        },
        {
            "buffer" : 0,
            "byteLength" : 1200,
            "byteOffset" : 11992
        },
        {
            "buffer" : 0,
            "byteLength" : 400,
            "byteOffset" : 13192
        },
        {
            "buffer" : 0,
            "byteLength" : 1600,
            "byteOffset" : 13592
        },
        {
            "buffer" : 0,
            "byteLength" : 400,
            "byteOffset" : 15192
        },
        {
            "buffer" : 0,
            "byteLength" : 1200,
            "byteOffset" : 15592
        },
        {
            "buffer" : 0,
            "byteLength" : 400,
            "byteOffset" : 16792
        },
        {
            "buffer" : 0,
            "byteLength" : 1600,
            "byteOffset" : 17192
        }
    ],
    "buffers" : [
        {
            "byteLength" : 18792,
            "uri" : "whateven.bin"
        }
    ],
    "meshes" : [
        {
            "name" : "Cylinder.001",
            "primitives" : [
                {
                    "attributes" : {
                        "JOINTS_0" : 4,
                        "NORMAL" : 2,
                        "POSITION" : 1,
                        "TEXCOORD_0" : 3,
                        "WEIGHTS_0" : 5
                    },
                    "indices" : 0
                }
            ]
        }
    ],
    "nodes" : [
        {
            "children" : [
                1,
                2
            ],
            "name" : "Armature"
        },
        {
            "mesh" : 0,
            "name" : "Cylinder.001",
            "skin" : 0
        },
        {
            "children" : [
                3
            ],
            "name" : "Armature_Bone"
        },
        {
            "children" : [
                4
            ],
            "name" : "Armature_Bone.001",
            "translation" : [
                0.0,
                1.0,
                0.0
            ]
        },
        {
            "name" : "Armature_Bone.002",
            "translation" : [
                0.0,
                1.2535250186920166,
                0.0
            ]
        }
    ],
    "scene" : 0,
    "scenes" : [
        {
            "name" : "Scene",
            "nodes" : [
                0
            ]
        }
    ],
    "skins" : [
        {
            "inverseBindMatrices" : 6,
            "joints" : [
                2,
                3,
                4
            ],
            "skeleton" : 0
        }
    ]
}
